<?xml version="1.0" encoding="UTF-8" standalone="no"?>
<!-- Generator: Adobe Illustrator 17.0.0, SVG Export Plug-In . SVG Version: 6.00 Build 0)  -->

<svg
   xmlns:dc="http://purl.org/dc/elements/1.1/"
   xmlns:cc="http://creativecommons.org/ns#"
   xmlns:rdf="http://www.w3.org/1999/02/22-rdf-syntax-ns#"
   xmlns:svg="http://www.w3.org/2000/svg"
   xmlns="http://www.w3.org/2000/svg"
   xmlns:sodipodi="http://sodipodi.sourceforge.net/DTD/sodipodi-0.dtd"
   xmlns:inkscape="http://www.inkscape.org/namespaces/inkscape"
   version="1.1"
   id="Layer_1"
   x="0px"
   y="0px"
   width="30"
   height="30"
   viewBox="0 0 30.000001 29.999999"
   enable-background="new 0 0 918.35 240.738"
   xml:space="preserve"
   inkscape:version="0.91 r13725"
   sodipodi:docname="galliumos_logo.svg"><metadata
     id="metadata53"><rdf:RDF><cc:Work
         rdf:about=""><dc:format>image/svg+xml</dc:format><dc:type
           rdf:resource="http://purl.org/dc/dcmitype/StillImage" /><dc:title /></cc:Work></rdf:RDF></metadata><defs
     id="defs51" /><sodipodi:namedview
     pagecolor="#ffffff"
     bordercolor="#666666"
     borderopacity="1"
     objecttolerance="10"
     gridtolerance="10"
     guidetolerance="10"
     inkscape:pageopacity="0"
     inkscape:pageshadow="2"
     inkscape:window-width="1920"
     inkscape:window-height="1014"
     id="namedview49"
     showgrid="false"
     fit-margin-top="0"
     fit-margin-left="0"
     fit-margin-right="0"
     fit-margin-bottom="0"
     inkscape:zoom="21.18972"
     inkscape:cx="7.6644855"
     inkscape:cy="11.182662"
     inkscape:window-x="0"
     inkscape:window-y="36"
     inkscape:window-maximized="1"
     inkscape:current-layer="g15" /><g
     id="Layer_1_1_"
     display="none"
     style="display:none"
     transform="translate(0,-210.738)"><rect
       x="78.831001"
       y="54.609001"
       display="inline"
       width="362.37799"
       height="362.37799"
       id="rect4"
       style="display:inline;fill:#00a651" /><circle
       display="inline"
       cx="260.01999"
       cy="235.798"
       r="60.811001"
       id="circle6"
       style="display:inline;fill:#ffffff" /><circle
       display="inline"
       cx="260.01999"
       cy="235.798"
       r="60.811001"
       id="circle8"
       style="display:inline;fill:#ffffff" /><circle
       display="inline"
       cx="260.01999"
       cy="235.798"
       r="60.811001"
       id="circle10"
       style="display:inline;fill:#ffffff" /></g><g
     id="Layer_2"
     transform="translate(0,-210.738)"><g
       id="g13"
       transform="matrix(0.1246168,0,0,0.1246168,0,210.738)"><g
         id="g15"><path
           d="m 122.403,81.369 c 9.495,0.488 18.09,4.366 24.605,10.448 0.559,0.521 1.097,1.064 1.624,1.617 1.714,1.653 3.249,3.489 4.564,5.486 l 0.004,-0.003 0.103,0.169 c 0.354,0.545 0.692,1.101 1.013,1.668 l 86.422,126.701 0,-227.455 0,0 -118.335,81.369 z"
           id="path17"
           inkscape:connector-curvature="0"
           style="fill:#ffffff;opacity:0.90581717" /><path
           d="m 118.334,159.369 c -9.495,-0.488 -18.089,-4.366 -24.605,-10.448 -0.559,-0.521 -1.097,-1.064 -1.624,-1.617 -1.714,-1.653 -3.249,-3.49 -4.564,-5.486 l -0.004,0.003 -0.103,-0.169 c -0.354,-0.545 -0.692,-1.101 -1.013,-1.668 L 0,13.284 l 0,227.454 0,0 118.334,-81.369 z"
           id="path21"
           inkscape:connector-curvature="0"
           style="fill:#ffffff;opacity:0.90581717" /><path
           d="m 81.369,118.334 c 0.488,-9.495 4.366,-18.089 10.447,-24.605 0.521,-0.559 1.064,-1.097 1.616,-1.624 1.653,-1.714 3.49,-3.249 5.487,-4.564 l -0.003,-0.004 0.169,-0.103 c 0.545,-0.354 1.101,-0.692 1.668,-1.013 L 227.454,0 0,0 0,0 81.369,118.334 Z"
           id="path25"
           inkscape:connector-curvature="0"
           style="fill:#ffffff;opacity:0.90581717" /><path
           d="m 159.369,122.403 c -0.488,9.495 -4.366,18.089 -10.448,24.605 -0.521,0.558 -1.063,1.097 -1.616,1.624 -1.653,1.714 -3.49,3.249 -5.487,4.564 l 0.003,0.004 -0.169,0.103 c -0.545,0.354 -1.101,0.692 -1.668,1.013 l -126.7,86.422 227.454,0 0,0 -81.369,-118.335 z"
           id="path29"
           inkscape:connector-curvature="0"
           style="fill:#ffffff;opacity:0.90581717" /></g></g></g></svg>